<svg width="250" height="50" viewBox="0 0 250 50" fill="none" xmlns="http://www.w3.org/2000/svg">
<g clip-path="url(#clip0)">
<path d="M97.7533 22.0604L94.2064 38.6938H84.9668L88.5137 22.0604C88.7916 20.753 88.6304 20.512 87.3212 20.512H83.9856C82.6847 20.512 82.4123 20.753 82.1371 22.0271C82.1371 22.0271 82.1371 22.0493 82.1371 22.0604L78.5902 38.6938H69.3423L72.8919 22.0604C73.1699 20.753 73.0087 20.512 71.6967 20.512H68.3611C67.0491 20.512 66.785 20.7557 66.507 22.0604L62.9574 38.6938H53.7178L59.1631 13.1606H66.6683L67.8579 15.3544C68.5423 14.6363 69.3707 14.0699 70.2893 13.6919C71.2078 13.3139 72.196 13.1329 73.1893 13.1606H75.1045C78.7181 13.1606 81.1559 14.7256 82.0287 17.3709C83.6437 14.4292 85.9842 13.1606 88.8111 13.1606H90.7291C96.1577 13.1606 98.918 16.6535 97.7533 22.0604Z" fill="#5965E0"/>
<path d="M124.697 22.0576L123.049 29.7913C121.895 35.1982 117.642 38.6911 112.208 38.6911H105.209C99.7828 38.6911 97.0226 35.1954 98.1761 29.7885L99.8245 22.0576C100.975 16.6507 105.228 13.1578 110.665 13.1578H117.676C123.09 13.1578 125.853 16.6507 124.697 22.0576ZM115.449 22.0576C115.727 20.7502 115.566 20.5092 114.257 20.5092H110.921C109.609 20.5092 109.345 20.753 109.067 22.0576L107.416 29.7885C107.138 31.0959 107.302 31.3369 108.611 31.3369H111.947C113.256 31.3369 113.523 31.0931 113.801 29.7885L115.449 22.0576Z" fill="#5965E0"/>
<path d="M181.574 20.0356C181.235 21.4871 180.419 22.784 179.255 23.7196L174.549 27.5975C173.421 28.543 172.001 29.0748 170.527 29.1043H164.012L163.864 29.7885C163.586 31.0959 163.748 31.3369 165.06 31.3369H179.158L177.59 38.6911H161.646C156.22 38.6911 153.46 35.1954 154.614 29.7885L156.262 22.0576C157.416 16.6507 161.668 13.1578 167.103 13.1578H174.119C179.531 13.1689 182.33 16.479 181.574 20.0356ZM171.895 22.0687C172.173 20.7613 172.012 20.5203 170.7 20.5203H167.364C166.058 20.5175 165.78 20.7641 165.502 22.0687L164.946 24.7306H170.449C170.696 24.7204 170.933 24.6302 171.124 24.4738C171.314 24.3173 171.448 24.103 171.506 23.8636L171.895 22.0687Z" fill="#5965E0"/>
<path d="M190.386 34.5981C189.874 36.9941 187.976 38.9358 185.104 38.9358C182.233 38.9358 181.166 36.9969 181.677 34.5981C182.188 32.1994 184.087 30.2632 186.958 30.2632C189.83 30.2632 190.889 32.1994 190.386 34.5981Z" fill="#4CD62B"/>
<path d="M24.9785 3.74487H36.7031L26.9493 49.9999H15.2246L24.9785 3.74487Z" fill="#5965E0"/>
<path d="M42.1815 3.74487H53.9061L46.3065 39.9866H34.5791L42.1815 3.74487Z" fill="#5965E0"/>
<path d="M7.60239 3.74487H19.327L11.7274 39.9866H0L7.60239 3.74487Z" fill="#5965E0"/>
<path d="M157.639 13.1578L140.608 38.8157H131.212L125 13.1578H135.062L137.767 30.0061L147.577 13.1718L157.639 13.1578Z" fill="#5965E0"/>
<path d="M220.573 22.1011L218.922 29.8725C217.766 35.3058 213.507 38.8157 208.064 38.8157H201.053C195.619 38.8157 192.854 35.303 194.01 29.8697L195.661 22.1011C196.813 16.6678 201.073 13.1578 206.519 13.1578H213.54C218.964 13.1578 221.731 16.6678 220.573 22.1011ZM211.31 22.1011C211.588 20.7873 211.427 20.5451 210.116 20.5451H206.775C205.461 20.5451 205.196 20.7901 204.918 22.1011L203.264 29.8697C202.986 31.1835 203.15 31.4257 204.461 31.4257H207.802C209.113 31.4257 209.381 31.1807 209.659 29.8697L211.31 22.1011Z" fill="#5965E0"/>
<path d="M265.805 22.0604L262.183 38.6938H252.747L256.369 22.0604C256.653 20.753 256.488 20.512 255.151 20.512H251.745C250.416 20.512 250.138 20.753 249.857 22.0271C249.857 22.0271 249.857 22.0493 249.857 22.0604L246.235 38.6938H236.79L240.415 22.0604C240.699 20.753 240.534 20.512 239.194 20.512H235.788C234.448 20.512 234.178 20.7557 233.894 22.0604L230.269 38.6938H220.833L226.394 13.1606H234.059L235.274 15.3544C235.973 14.6363 236.819 14.0699 237.757 13.6919C238.695 13.3139 239.704 13.1329 240.719 13.1606H242.675C246.365 13.1606 248.855 14.7256 249.746 17.3709C251.396 14.4292 253.786 13.1606 256.673 13.1606H258.632C264.176 13.1606 266.995 16.6535 265.805 22.0604Z" fill="#5965E0"/>
</g>
<defs>
<clipPath id="clip0">
<rect width="250" height="50" fill="white"/>
</clipPath>
</defs>
</svg>
