<svg width="360" height="76" viewBox="0 0 360 76" fill="none" xmlns="http://www.w3.org/2000/svg">
<g clip-path="url(#clip0)">
<path d="M140.765 33.5319L135.658 58.8147H122.353L127.46 33.5319C127.861 31.5446 127.628 31.1783 125.743 31.1783H120.94C119.067 31.1783 118.674 31.5446 118.278 33.4813C118.278 33.4813 118.278 33.515 118.278 33.5319L113.171 58.8147H99.8536L104.965 33.5319C105.365 31.5446 105.133 31.1783 103.244 31.1783H98.4406C96.5513 31.1783 96.171 31.5488 95.7708 33.5319L90.6593 58.8147H77.3542L85.1956 20.0042H96.0029L97.7161 23.3387C98.7016 22.2473 99.8945 21.3863 101.217 20.8118C102.54 20.2373 103.963 19.9621 105.393 20.0042H108.151C113.355 20.0042 116.865 22.383 118.122 26.4038C120.448 21.9325 123.818 20.0042 127.889 20.0042H130.65C138.468 20.0042 142.443 25.3134 140.765 33.5319Z" fill="#4CD62B"/>
<path d="M179.563 33.5277L177.189 45.2828C175.528 53.5013 169.404 58.8105 161.579 58.8105H151.5C143.687 58.8105 139.712 53.4971 141.373 45.2786L143.747 33.5277C145.404 25.3092 151.528 20 159.357 20H169.452C177.249 20 181.228 25.3092 179.563 33.5277ZM166.246 33.5277C166.646 31.5404 166.414 31.1741 164.529 31.1741H159.725C157.836 31.1741 157.456 31.5446 157.056 33.5277L154.678 45.2786C154.278 47.2659 154.514 47.6322 156.399 47.6322H161.202C163.088 47.6322 163.472 47.2617 163.872 45.2786L166.246 33.5277Z" fill="#4CD62B"/>
<path d="M261.466 30.4542C260.979 32.6604 259.804 34.6317 258.128 36.0539L251.351 41.9483C249.726 43.3855 247.682 44.1938 245.56 44.2387H236.177L235.965 45.2786C235.565 47.2659 235.797 47.6322 237.686 47.6322H257.988L255.73 58.8105H232.771C224.957 58.8105 220.983 53.4971 222.644 45.2786L225.018 33.5277C226.679 25.3092 232.803 20 240.628 20H250.731C258.524 20.0168 262.555 25.0481 261.466 30.4542ZM247.529 33.5445C247.929 31.5573 247.697 31.191 245.808 31.191H241.004C239.123 31.1868 238.723 31.5615 238.323 33.5445L237.522 37.5906H245.447C245.803 37.5751 246.144 37.4381 246.418 37.2002C246.693 36.9623 246.886 36.6367 246.968 36.2728L247.529 33.5445Z" fill="#4CD62B"/>
<path d="M274.155 52.5891C273.419 56.231 270.685 59.1824 266.55 59.1824C262.415 59.1824 260.878 56.2352 261.615 52.5891C262.351 48.943 265.085 46 269.22 46C273.355 46 274.88 48.943 274.155 52.5891Z" fill="#fff"/>
<path d="M35.9687 5.69226H52.8521L38.8066 75.9999H21.9231L35.9687 5.69226Z" fill="#4CD62B"/>
<path d="M60.7414 5.69226H77.6249L66.6814 60.7797H49.7939L60.7414 5.69226Z" fill="#4CD62B"/>
<path d="M10.9474 5.69226H27.8309L16.8875 60.7797H0L10.9474 5.69226Z" fill="#4CD62B"/>
<path d="M227 20L202.475 59H188.946L180 20H194.489L198.385 45.6094L212.511 20.0212L227 20Z" fill="#4CD62B"/>
<path d="M317.625 33.5937L315.247 45.4063C313.584 53.6649 307.45 59 299.612 59H289.517C281.691 59 277.71 53.6607 279.374 45.402L281.751 33.5937C283.411 25.3351 289.545 20 297.387 20H307.498C315.308 20 319.293 25.3351 317.625 33.5937ZM304.287 33.5937C304.687 31.5968 304.455 31.2287 302.567 31.2287H297.756C295.863 31.2287 295.482 31.601 295.082 33.5937L292.7 45.402C292.299 47.399 292.536 47.7671 294.424 47.7671H299.235C301.123 47.7671 301.508 47.3948 301.909 45.402L304.287 33.5937Z" fill="#4CD62B"/>
<path d="M382.76 33.5319L377.544 58.8147H363.956L369.172 33.5319C369.581 31.5446 369.344 31.1783 367.418 31.1783H362.513C360.6 31.1783 360.199 31.5446 359.795 33.4813C359.795 33.4813 359.795 33.515 359.795 33.5319L354.578 58.8147H340.978L346.198 33.5319C346.607 31.5446 346.37 31.1783 344.44 31.1783H339.535C337.606 31.1783 337.217 31.5488 336.808 33.5319L331.588 58.8147H318L326.008 20.0042H337.045L338.795 23.3387C339.802 22.2473 341.02 21.3863 342.371 20.8118C343.722 20.2373 345.175 19.9621 346.636 20.0042H349.452C354.766 20.0042 358.352 22.383 359.635 26.4038C362.01 21.9325 365.452 20.0042 369.61 20.0042H372.43C380.414 20.0042 384.473 25.3134 382.76 33.5319Z" fill="#4CD62B"/>
</g>
<defs>
<clipPath id="clip0">
<rect width="360" height="76" fill="#4CD62B"/>
</clipPath>
</defs>
</svg>
