<svg width="1200" height="630" viewBox="0 0 1200 630" fill="none" xmlns="http://www.w3.org/2000/svg">
<rect width="1200" height="630" fill="#111111"/>
<g clip-path="url(#clip0)">
<path d="M512.812 305.515L501.462 361.699H471.895L483.245 305.515C484.135 301.099 483.619 300.285 479.429 300.285H468.755C464.593 300.285 463.721 301.099 462.84 305.403C462.84 305.403 462.84 305.478 462.84 305.515L451.49 361.699H421.897L433.256 305.515C434.145 301.099 433.629 300.285 429.431 300.285H418.757C414.559 300.285 413.714 301.108 412.824 305.515L401.465 361.699H371.898L389.324 275.454H413.34L417.147 282.864C419.337 280.438 421.988 278.525 424.927 277.248C427.867 275.972 431.029 275.36 434.207 275.454H440.336C451.9 275.454 459.7 280.74 462.493 289.675C467.661 279.739 475.151 275.454 484.197 275.454H490.335C507.706 275.454 516.539 287.252 512.812 305.515Z" fill="#4CD62B"/>
<path d="M599.029 305.506L593.754 331.628C590.063 349.892 576.454 361.69 559.064 361.69H536.666C519.304 361.69 510.471 349.882 514.162 331.619L519.437 305.506C523.119 287.243 536.729 275.444 554.127 275.444H576.56C593.888 275.444 602.729 287.243 599.029 305.506ZM569.435 305.506C570.325 301.09 569.809 300.276 565.619 300.276H554.946C550.747 300.276 549.902 301.099 549.013 305.506L543.729 331.619C542.84 336.035 543.364 336.849 547.554 336.849H558.228C562.417 336.849 563.271 336.026 564.161 331.619L569.435 305.506Z" fill="#4CD62B"/>
<path d="M781.036 298.676C779.953 303.579 777.342 307.959 773.617 311.12L758.558 324.218C754.947 327.412 750.405 329.208 745.687 329.308H724.838L724.366 331.619C723.477 336.035 723.993 336.849 728.191 336.849H773.306L768.289 361.69H717.268C699.905 361.69 691.072 349.882 694.764 331.619L700.039 305.506C703.73 287.243 717.339 275.444 734.729 275.444H757.18C774.498 275.482 783.455 286.662 781.036 298.676ZM750.064 305.543C750.953 301.127 750.437 300.313 746.239 300.313H735.565C731.384 300.304 730.495 301.136 729.605 305.543L727.826 314.535H745.438C746.228 314.5 746.985 314.196 747.596 313.667C748.206 313.138 748.635 312.415 748.818 311.606L750.064 305.543Z" fill="#4CD62B"/>
<path d="M809.234 347.865C807.597 355.958 801.522 362.516 792.334 362.516C783.145 362.516 779.73 355.967 781.366 347.865C783.003 339.762 789.078 333.222 798.267 333.222C807.455 333.222 810.844 339.762 809.234 347.865Z" fill="white"/>
<path d="M279.93 243.649H317.449L286.237 399.889H248.718L279.93 243.649Z" fill="#4CD62B"/>
<path d="M334.981 243.649H372.5L348.181 366.066H310.653L334.981 243.649Z" fill="#4CD62B"/>
<path d="M224.328 243.649H261.847L237.528 366.066H200L224.328 243.649Z" fill="#4CD62B"/>
<path d="M704.444 275.444L649.945 362.111H619.879L600 275.444H632.197L640.855 332.354L672.247 275.491L704.444 275.444Z" fill="#4CD62B"/>
<path d="M905.833 305.653L900.55 331.903C896.853 350.255 883.222 362.111 865.804 362.111H843.371C825.98 362.111 817.133 350.246 820.831 331.893L826.114 305.653C829.802 287.3 843.433 275.444 860.86 275.444H883.328C900.684 275.444 909.539 287.3 905.833 305.653ZM876.192 305.653C877.083 301.215 876.566 300.397 872.37 300.397H861.679C857.474 300.397 856.628 301.224 855.737 305.653L850.445 331.893C849.554 336.331 850.079 337.149 854.276 337.149H864.967C869.163 337.149 870.018 336.322 870.909 331.893L876.192 305.653Z" fill="#4CD62B"/>
<path d="M1050.58 305.515L1038.99 361.699H1008.79L1020.38 305.515C1021.29 301.099 1020.76 300.285 1016.49 300.285H1005.58C1001.33 300.285 1000.44 301.099 999.544 305.403C999.544 305.403 999.544 305.478 999.544 305.515L987.952 361.699H957.729L969.33 305.515C970.238 301.099 969.711 300.285 965.424 300.285H954.523C950.235 300.285 949.372 301.108 948.463 305.515L936.863 361.699H906.667L924.463 275.454H948.99L952.878 282.864C955.115 280.438 957.822 278.525 960.824 277.248C963.826 275.972 967.055 275.36 970.302 275.454H976.561C988.37 275.454 996.337 280.74 999.19 289.675C1004.47 279.739 1012.12 275.454 1021.36 275.454H1027.62C1045.36 275.454 1054.39 287.252 1050.58 305.515Z" fill="#4CD62B"/>
</g>
<defs>
<clipPath id="clip0">
<rect width="800" height="168.889" fill="white" transform="translate(200 231)"/>
</clipPath>
</defs>
</svg>
